<svg xmlns="http://www.w3.org/2000/svg" xmlns:xlink="http://www.w3.org/1999/xlink" width="500" zoomAndPan="magnify" viewBox="0 0 375 374.999991" height="500" preserveAspectRatio="xMidYMid meet" version="1.0"><defs><clipPath id="09ab24c519"><path d="M 187.492188 0.00390625 L 374.992188 187.503906 L 187.492188 375.003906 L -0.0078125 187.503906 Z M 187.492188 0.00390625 " clip-rule="nonzero"/></clipPath><clipPath id="c339e72717"><path d="M 141 27.488281 L 234 27.488281 L 234 208 L 141 208 Z M 141 27.488281 " clip-rule="nonzero"/></clipPath></defs><rect x="-37.5" width="450" fill="#ffffff" y="-37.499999" height="449.999989" fill-opacity="1"/><rect x="-37.5" width="450" fill="#ffffff" y="-37.499999" height="449.999989" fill-opacity="1"/><g clip-path="url(#09ab24c519)"><path fill="#000000" d="M 187.492188 0.00390625 L 374.992188 187.503906 L 187.492188 375.003906 L -0.0078125 187.503906 Z M 187.492188 0.00390625 " fill-opacity="1" fill-rule="nonzero"/></g><g clip-path="url(#c339e72717)"><path fill="#ffffff" d="M 148.203125 186.246094 C 158.09375 186.949219 164.589844 190.925781 168.042969 196.195312 C 170.5 192.097656 173.191406 188.234375 176.058594 184.433594 C 177.523438 182.5 178.925781 180.570312 180.332031 178.640625 C 180.914062 177.878906 179.453125 175.011719 179.21875 174.308594 C 178.457031 172.144531 177.582031 169.976562 176.761719 167.8125 C 173.835938 160.148438 173.25 150.902344 174.1875 142.824219 C 174.480469 140.425781 174.886719 138.027344 175.53125 135.6875 C 176.996094 130.246094 179.511719 125.503906 184.308594 122.226562 C 184.425781 122.167969 184.425781 121.933594 184.484375 121.816406 C 185.304688 121.699219 186.066406 121.582031 186.882812 121.523438 C 188.347656 122.753906 189.984375 123.808594 191.214844 125.269531 C 192.910156 127.203125 194.375 129.308594 195.664062 131.53125 C 197.59375 134.808594 199.054688 138.261719 200.167969 141.773438 L 199.640625 141.949219 L 199.992188 143.234375 L 200.519531 143.058594 C 201.921875 148.210938 202.507812 153.59375 202.390625 159.09375 C 202.273438 163.484375 201.746094 167.753906 200.753906 171.851562 L 200.34375 173.488281 C 198.589844 179.691406 195.777344 185.542969 191.683594 190.984375 C 190.980469 191.863281 190.921875 192.683594 191.332031 193.621094 C 191.507812 194.027344 191.683594 194.496094 191.800781 194.964844 C 193.144531 198.769531 194.609375 203.566406 195.953125 207.429688 C 195.953125 207.429688 197.535156 206.84375 197.59375 206.785156 C 199.757812 206.316406 201.921875 206.199219 204.03125 206.375 C 203.621094 196.722656 210.875 187.300781 226.617188 186.1875 C 228.199219 186.070312 229.425781 184.722656 229.425781 183.144531 C 229.074219 164.007812 248.972656 122.695312 198.53125 117.605469 C 196.539062 117.429688 195.019531 115.789062 194.960938 113.742188 L 194.082031 72.253906 L 203.503906 72.253906 C 203.855469 73.714844 204.730469 74.652344 206.78125 74.652344 C 209.765625 74.652344 212.222656 72.488281 212.222656 69.855469 C 212.222656 67.21875 209.765625 65.054688 206.78125 65.054688 C 204.730469 65.054688 203.855469 66.050781 203.503906 67.453125 L 193.964844 67.453125 L 193.671875 53.351562 C 193.554688 49.957031 195.371094 46.738281 198.296875 45.042969 L 198.589844 44.867188 L 198.589844 32.753906 L 198.53125 32.753906 C 195.136719 32.753906 192.210938 30.589844 191.15625 27.488281 L 184.367188 27.488281 C 183.316406 30.53125 180.390625 32.753906 176.996094 32.753906 L 176.9375 32.753906 L 176.9375 44.867188 L 177.054688 44.984375 C 179.6875 46.796875 181.207031 49.78125 181.089844 52.941406 L 181.03125 53.996094 L 180.914062 59.144531 L 171.496094 59.144531 C 171.144531 57.683594 170.265625 56.746094 168.21875 56.746094 C 165.234375 56.746094 162.773438 58.910156 162.773438 61.542969 C 162.773438 64.175781 165.234375 66.34375 168.21875 66.34375 C 170.265625 66.34375 171.144531 65.347656 171.496094 63.941406 L 180.855469 63.941406 L 180.621094 75.707031 L 171.550781 75.707031 C 171.203125 74.242188 170.324219 73.304688 168.277344 73.304688 C 165.292969 73.304688 162.832031 75.472656 162.832031 78.105469 C 162.832031 80.738281 165.292969 82.902344 168.277344 82.902344 C 170.324219 82.902344 171.203125 81.910156 171.550781 80.503906 L 180.5625 80.503906 L 179.863281 113.800781 C 179.804688 115.789062 178.28125 117.429688 176.292969 117.664062 C 125.5 122.753906 145.746094 164.066406 145.453125 183.203125 C 145.394531 184.78125 146.625 186.1875 148.203125 186.246094 Z M 148.203125 186.246094 " fill-opacity="1" fill-rule="nonzero"/></g><path fill="#d97706" d="M 237.328125 240.492188 C 233.992188 236.6875 232.9375 234.464844 233.992188 231.949219 C 234.695312 230.25 233.523438 228.378906 231.710938 228.378906 L 231.652344 228.378906 C 229.484375 228.261719 227.4375 228.027344 225.507812 227.617188 C 226.5 231.773438 226.675781 236.160156 225.507812 240.082031 C 223.515625 246.636719 218.425781 252.488281 212.75 255.589844 C 212.75 255.589844 213.277344 256.996094 213.277344 256.996094 C 213.6875 258.28125 214.09375 259.511719 214.503906 260.796875 C 216.554688 266.824219 219.011719 272.675781 220.296875 278.9375 C 222.347656 288.769531 216.320312 298.191406 206.839844 301.175781 C 200.988281 302.988281 194.316406 302.519531 188.992188 299.304688 C 180.796875 294.445312 179.511719 284.4375 184.835938 277.59375 C 187.761719 273.847656 192.445312 272.558594 196.773438 274.433594 C 201.046875 276.246094 203.503906 279.699219 204.03125 284.265625 C 204.617188 289.0625 202.214844 292.925781 197.828125 294.914062 C 197.535156 295.03125 197.300781 295.207031 196.832031 295.441406 C 197.300781 295.734375 197.535156 295.910156 197.828125 295.96875 C 199.992188 296.84375 202.15625 296.550781 204.265625 295.96875 C 210.527344 294.210938 215.5 289.707031 214.679688 281.863281 C 214.386719 279.171875 213.859375 276.480469 213.160156 273.847656 C 212.457031 271.214844 211.402344 268.640625 210.46875 266.125 C 209.589844 263.78125 208.652344 261.558594 207.71875 259.277344 C 206.722656 259.511719 205.960938 259.6875 205.199219 259.921875 C 197.652344 262.085938 190.21875 261.558594 183.023438 258.457031 C 169.621094 252.722656 159.730469 238.738281 159.441406 224.164062 C 155.226562 226.625 149.84375 228.203125 143.40625 228.496094 L 143.347656 228.496094 C 141.53125 228.496094 140.363281 230.367188 141.066406 232.066406 C 142.058594 234.582031 141.066406 236.863281 137.730469 240.609375 C 110.402344 271.566406 123.976562 313.464844 187.644531 313.464844 C 250.667969 313.289062 264.597656 271.449219 237.328125 240.492188 Z M 237.328125 240.492188 " fill-opacity="1" fill-rule="nonzero"/><path fill="#ffffff" d="M 190.160156 227.734375 C 185.246094 235.109375 190.394531 243.300781 196.304688 245.058594 C 196.773438 245.171875 197.242188 245.289062 197.652344 245.523438 C 198.472656 245.933594 198.820312 246.636719 198.703125 247.515625 C 198.53125 248.390625 197.945312 248.917969 197.066406 249.035156 C 196.539062 249.09375 195.953125 249.09375 195.371094 249.035156 C 187.996094 247.925781 181.207031 241.546875 179.921875 234.230469 C 178.222656 224.574219 181.5 216.675781 188.992188 210.472656 C 189.519531 210.003906 190.101562 209.59375 190.628906 209.183594 C 189.285156 205.148438 187.9375 201.285156 186.59375 197.304688 C 186.242188 197.597656 186.007812 197.773438 185.773438 198.007812 C 181.089844 203.273438 177.113281 209.007812 173.894531 215.269531 C 171.144531 220.597656 169.796875 226.273438 169.972656 232.242188 C 170.265625 242.1875 176.703125 250.851562 186.183594 254.1875 C 192.734375 256.46875 199.230469 256.351562 205.785156 253.367188 C 202.332031 243.183594 198.878906 233.058594 195.371094 222.703125 C 192.851562 223.933594 191.449219 225.804688 190.160156 227.734375 Z M 190.160156 227.734375 " fill-opacity="1" fill-rule="nonzero"/><path fill="#ffffff" d="M 215.96875 231.304688 C 213.394531 225.160156 207.191406 220.246094 200.753906 221.414062 C 204.148438 231.1875 207.425781 240.960938 210.933594 250.675781 C 216.960938 247.398438 218.484375 237.449219 215.96875 231.304688 Z M 215.96875 231.304688 " fill-opacity="1" fill-rule="nonzero"/><path fill="#ffffff" d="M 184.308594 174.074219 C 185.128906 173.136719 185.480469 172.785156 185.832031 172.320312 C 188.699219 168.515625 190.804688 164.242188 192.445312 159.796875 C 194.082031 155.464844 195.195312 151.019531 194.785156 146.394531 C 194.609375 144.640625 194.199219 142.882812 193.613281 141.246094 C 192.910156 139.375 191.507812 138.730469 189.578125 139.199219 C 187.996094 139.546875 186.765625 140.484375 185.949219 141.773438 C 185.246094 142.824219 184.601562 143.996094 184.191406 145.167969 C 181.617188 152.597656 180.855469 160.207031 182.4375 167.929688 C 182.789062 169.917969 183.550781 171.734375 184.308594 174.074219 Z M 184.308594 174.074219 " fill-opacity="1" fill-rule="nonzero"/><path fill="#000000" d="M 223.691406 222.234375 C 219.363281 211.992188 209.0625 204.328125 197.59375 206.84375 C 197.535156 206.902344 195.953125 207.488281 195.953125 207.488281 C 194.609375 203.625 193.085938 198.828125 191.800781 195.023438 C 191.625 194.554688 191.507812 194.085938 191.332031 193.679688 C 190.863281 192.742188 190.980469 191.921875 191.683594 191.042969 C 195.777344 185.660156 198.648438 179.808594 200.34375 173.546875 L 200.753906 171.910156 C 201.75 167.8125 202.273438 163.542969 202.390625 159.152344 C 202.566406 153.652344 201.980469 148.269531 200.519531 143.117188 L 199.992188 143.292969 L 199.640625 142.007812 L 200.167969 141.832031 C 199.113281 138.320312 197.59375 134.925781 195.664062 131.589844 C 194.375 129.367188 192.851562 127.261719 191.214844 125.328125 C 189.984375 123.925781 188.347656 122.8125 186.882812 121.582031 C 186.066406 121.699219 185.304688 121.816406 184.484375 121.875 C 184.425781 121.992188 184.425781 122.226562 184.308594 122.285156 C 179.511719 125.5625 177.054688 130.304688 175.53125 135.746094 C 174.886719 138.085938 174.421875 140.484375 174.1875 142.882812 C 173.25 150.960938 173.835938 160.207031 176.761719 167.871094 C 177.582031 170.035156 178.457031 172.203125 179.21875 174.367188 C 179.453125 175.070312 180.914062 177.9375 180.332031 178.699219 C 178.925781 180.628906 177.464844 182.558594 176.058594 184.492188 C 171.960938 189.875 168.160156 195.492188 165.117188 201.519531 C 162.65625 206.375 160.785156 212.109375 159.789062 217.4375 C 156.628906 234.230469 167.398438 251.726562 182.847656 258.339844 C 190.042969 261.441406 197.476562 261.96875 205.023438 259.804688 C 205.785156 259.570312 206.605469 259.394531 207.542969 259.160156 C 208.476562 261.441406 209.414062 263.722656 210.292969 266.007812 C 211.226562 268.582031 212.28125 271.097656 212.984375 273.730469 C 213.6875 276.363281 214.210938 279.054688 214.503906 281.746094 C 215.324219 289.589844 210.351562 294.09375 204.089844 295.851562 C 201.980469 296.4375 199.816406 296.726562 197.652344 295.851562 C 197.359375 295.734375 197.125 295.558594 196.65625 295.324219 C 197.125 295.089844 197.417969 294.914062 197.652344 294.796875 C 202.039062 292.75 204.441406 288.886719 203.855469 284.148438 C 203.328125 279.582031 200.929688 276.1875 196.597656 274.316406 C 192.269531 272.5 187.585938 273.730469 184.660156 277.535156 C 179.335938 284.382812 180.621094 294.386719 188.816406 299.246094 C 194.140625 302.40625 200.8125 302.929688 206.664062 301.117188 C 216.144531 298.191406 222.113281 288.710938 220.121094 278.878906 C 218.835938 272.617188 216.378906 266.765625 214.328125 260.738281 C 213.917969 259.511719 213.511719 258.222656 213.101562 256.9375 C 213.101562 256.9375 212.574219 255.53125 212.574219 255.53125 C 218.25 252.429688 223.339844 246.578125 225.332031 240.023438 C 227.203125 234.347656 225.972656 227.617188 223.691406 222.234375 Z M 184.132812 145.226562 C 184.542969 144.054688 185.1875 142.882812 185.890625 141.832031 C 186.765625 140.542969 187.9375 139.605469 189.519531 139.257812 C 191.449219 138.789062 192.910156 139.429688 193.554688 141.304688 C 194.140625 142.941406 194.609375 144.699219 194.726562 146.453125 C 195.136719 151.136719 194.023438 155.523438 192.386719 159.855469 C 190.6875 164.300781 188.640625 168.574219 185.773438 172.378906 C 185.421875 172.84375 185.070312 173.195312 184.25 174.132812 C 183.492188 171.792969 182.730469 169.917969 182.320312 168.046875 C 180.796875 160.265625 181.558594 152.65625 184.132812 145.226562 Z M 186.125 254.183594 C 176.644531 250.851562 170.265625 242.1875 169.914062 232.242188 C 169.738281 226.273438 171.085938 220.597656 173.835938 215.269531 C 177.054688 209.007812 181.03125 203.273438 185.714844 198.007812 C 185.949219 197.773438 186.183594 197.597656 186.535156 197.304688 C 187.878906 201.285156 189.167969 205.148438 190.570312 209.183594 C 190.042969 209.59375 189.460938 210.003906 188.933594 210.472656 C 181.441406 216.675781 178.222656 224.574219 179.863281 234.230469 C 181.148438 241.546875 187.9375 247.925781 195.3125 249.035156 C 195.835938 249.09375 196.421875 249.152344 197.007812 249.035156 C 197.886719 248.917969 198.53125 248.390625 198.648438 247.515625 C 198.820312 246.636719 198.414062 245.933594 197.59375 245.523438 C 197.183594 245.289062 196.714844 245.171875 196.246094 245.058594 C 190.394531 243.300781 185.1875 235.109375 190.101562 227.734375 C 191.390625 225.804688 192.792969 223.933594 195.253906 222.703125 C 198.761719 233.058594 202.214844 243.183594 205.667969 253.367188 C 199.171875 256.351562 192.675781 256.46875 186.125 254.183594 Z M 210.875 250.675781 C 207.367188 240.960938 204.148438 231.1875 200.695312 221.414062 C 207.132812 220.1875 213.394531 225.160156 215.910156 231.304688 C 218.484375 237.449219 216.960938 247.398438 210.875 250.675781 Z M 210.875 250.675781 " fill-opacity="1" fill-rule="nonzero"/></svg>